<svg width="123" height="99" viewBox="0 0 123 99" fill="none" xmlns="http://www.w3.org/2000/svg">
<path fill-rule="evenodd" clip-rule="evenodd" d="M8.32 0H114.56C119.14 0 122.88 3.74 122.88 8.32V90C122.88 94.57 119.14 98.32 114.56 98.32H8.32C3.74 98.31 0 94.57 0 89.99V8.32C0 3.74 3.74 0 8.32 0ZM63.1 40.11L86.2 76.38C86.9 77.47 87.5 79.71 86.2 79.71H36.68C35.38 79.71 35.98 77.47 36.68 76.38L59.77 40.11C60.47 39.02 62.41 39.02 63.1 40.11ZM59.42 70.09H63.44V73.65H59.42V70.09ZM63.44 67.63H59.42C59.02 62.75 58.18 59.65 58.18 54.77C58.18 52.97 59.64 51.51 61.44 51.51C63.24 51.51 64.7 52.97 64.7 54.77C64.7 59.64 63.85 62.75 63.44 67.63ZM117.97 23.29H5.29V90.8C5.29 91.44 5.54 92 5.96 92.43C6.38 92.86 6.95 93.1 7.59 93.1H115.63C116.27 93.1 116.83 92.85 117.26 92.43C117.69 92 117.93 91.44 117.93 90.8V23.29H117.97ZM106.64 9.35C108.91 9.35 110.75 11.19 110.75 13.46C110.75 15.73 108.91 17.57 106.64 17.57C104.37 17.57 102.53 15.73 102.53 13.46C102.54 11.19 104.38 9.35 106.64 9.35ZM78.8 9.35C81.07 9.35 82.91 11.19 82.91 13.46C82.91 15.73 81.07 17.57 78.8 17.57C76.53 17.57 74.69 15.73 74.69 13.46C74.69 11.19 76.53 9.35 78.8 9.35ZM92.72 9.35C94.99 9.35 96.83 11.19 96.83 13.46C96.83 15.73 94.99 17.57 92.72 17.57C90.45 17.57 88.61 15.73 88.61 13.46C88.61 11.19 90.45 9.35 92.72 9.35Z" fill="#89ABE3"/>
</svg>
